<svg xmlns="http://www.w3.org/2000/svg" version="1.1" xmlns:xlink="http://www.w3.org/1999/xlink" xmlns:svgjs="http://svgjs.dev/svgjs" width="2000" height="277" viewBox="0 0 2000 277"><g transform="matrix(1,0,0,1,-1.2121212121212466,-2.391024739333403)"><svg viewBox="0 0 396 55" data-background-color="#efefef" preserveAspectRatio="xMidYMid meet" height="277" width="2000" xmlns="http://www.w3.org/2000/svg" xmlns:xlink="http://www.w3.org/1999/xlink"><g id="tight-bounds" transform="matrix(1,0,0,1,0.2400000000000091,0.4747522045607866)"><svg viewBox="0 0 395.52 54.387451800847785" height="54.387451800847785" width="395.52"><g><svg viewBox="0 0 566.3405902895622 77.87677375919613" height="54.387451800847785" width="395.52"><g><rect width="5.081771220285692" height="67.62093235241342" x="152.4357530475863" y="5.127920703391354" fill="#5182f0" opacity="1" stroke-width="0" stroke="transparent" fill-opacity="1" class="rect-qz-0" data-fill-palette-color="primary" rx="1%" id="qz-0" data-palette-color="#5182f0"></rect></g><g transform="matrix(1,0,0,1,170.8205902895623,10.762998399425804)"><svg viewBox="0 0 395.52 56.35077696034452" height="56.35077696034452" width="395.52"><g id="textblocktransform"><svg viewBox="0 0 395.52 56.35077696034452" height="56.35077696034452" width="395.52" id="textblock"><g><svg viewBox="0 0 395.52 56.35077696034452" height="56.35077696034452" width="395.52"><g transform="matrix(1,0,0,1,0,0)"><svg width="395.52" viewBox="0.2 -38.16 272.09000000000003 38.769999999999996" height="56.35077696034452" data-palette-color="#5182f0"><path d="M15.87 0.02L15.82 0.1Q15.09 0 13.33 0L13.33 0 10.5 0Q9.67 0 9.13 0.05L9.13 0.05 9.11 0Q9.2-0.17 9.2-0.39 9.2-0.61 9.17-0.85 9.13-1.1 8.97-1.73 8.81-2.37 8.5-3.56L8.5-3.56 0.2-32.57Q1.76-32.47 3.98-32.47 6.2-32.47 6.86-32.67L6.86-32.67 12.62-10.57 18.24-32.57Q18.6-32.54 18.9-32.52L18.9-32.52 19.43-32.52Q20.24-32.47 21.46-32.47 22.68-32.47 23.97-32.67L23.97-32.67 29.69-10.57 34.59-32.57Q36.06-32.47 38.43-32.47 40.8-32.47 41.31-32.67L41.31-32.67 34.28-6.91Q32.93-2.47 32.86-1.64 32.79-0.81 32.79-0.49 32.79-0.17 32.89 0.02L32.89 0.02 32.84 0.1Q32.06 0 30.37 0L30.37 0Q28.91 0 27.71 0 26.51 0 25.98 0.05L25.98 0.05 25.95 0Q26.05-0.17 26.05-0.39 26.05-0.61 26.03-0.83 26-1.05 25.89-1.67 25.78-2.29 25.54-3.52L25.54-3.52 24.88-6.84 20.87-22.05 17.07-6.91Q15.89-2.25 15.84-1.54L15.84-1.54Q15.75-0.2 15.87 0.02L15.87 0.02ZM50.05-28.83L44.55-32.79Q46.51-35.84 48.63-38.16L48.63-38.16 53.88-34.03Q52.83-32.74 51.93-31.49L51.93-31.49Q51.93-31.49 50.05-28.83L50.05-28.83ZM50.97-25.51L50.97-2.73Q50.97-0.63 51.07 0L51.07 0 44.87 0 44.87-25.51 50.97-25.51ZM63.96-36.33L63.96-24.58Q66.69-26 69.55-26 72.41-26 74.47-25.11 76.53-24.22 78.1-22.56L78.1-22.56Q81.49-18.87 81.49-13.23L81.49-13.23Q81.49-7.06 77.8-3.27L77.8-3.27Q74.26 0.37 68.99 0.37L68.99 0.37Q64.35 0.37 61.35-2.05L61.35-2.05Q57.98-4.79 57.98-9.59L57.98-9.59 57.98-36.33 63.96-36.33ZM63.96-18.41L63.96-9.67Q63.96-5.37 69.31-5.37L69.31-5.37Q71.92-5.37 73.7-7.67L73.7-7.67Q75.51-10.01 75.51-13.5L75.51-13.5Q75.51-17.02 73.6-18.8L73.6-18.8Q71.89-20.39 69.01-20.39L69.01-20.39Q67.28-20.39 65.18-19.21L65.18-19.21Q64.52-18.85 63.96-18.41L63.96-18.41ZM102.12 0L102.12-2.22Q98.99 0.37 95.31 0.37L95.31 0.37Q91.35 0.37 89.1-2.29L89.1-2.29Q86.96-4.88 86.96-9.4L86.96-9.4 86.96-19.09Q86.96-23.97 86.75-24.69 86.54-25.42 86.44-25.61L86.44-25.61Q87.57-25.51 88.79-25.51L88.79-25.51 90.81-25.51Q91.62-25.51 92.94-25.59L92.94-25.59 92.94-11.45Q92.94-6.42 95.67-5.62L95.67-5.62Q96.5-5.37 97.48-5.37L97.48-5.37Q100.36-5.37 102.12-7.47L102.12-7.47 102.12-25.51 108.17-25.51 108.17-3.13Q108.17-0.98 108.37 0L108.37 0 102.12 0ZM118.13-23.85L118.03-27.1Q117.86-32.71 117.64-34.91L117.64-34.91 123.77-34.91Q123.48-32.2 123.35-27.08L123.35-27.08 123.28-23.85 118.13-23.85ZM141.25 0.37L141.25 0.37Q134.36 0.37 130.87-2.15L130.87-2.15Q130.92-2.88 131.02-3.81L131.02-3.81 131.24-5.57Q131.43-7.3 131.48-7.73 131.53-8.15 131.55-8.19 131.58-8.23 131.95-7.8 132.31-7.37 133.34-6.76 134.36-6.15 135.71-5.69L135.71-5.69Q138.61-4.69 141.76-4.69L141.76-4.69Q145.98-4.69 145.98-7.5L145.98-7.5Q145.98-8.4 145.18-8.84L145.18-8.84Q143.74-9.57 140.94-9.95 138.15-10.33 136.36-11.06 134.58-11.79 133.46-12.82L133.46-12.82Q131.38-14.75 131.38-17.87L131.38-17.87Q131.38-21.68 134.31-23.85L134.31-23.85Q137.22-26 142.35-26L142.35-26Q147.42-26 151.01-23.12L151.01-23.12Q150.84-22.49 150.65-21.9L150.65-21.9Q150.09-20.29 149.82-19.58L149.82-19.58 149.26-18.14Q149.21-17.94 149.18-17.94L149.18-17.94Q149.13-17.94 148.79-18.46L148.79-18.46Q147.25-20.24 144.01-20.8L144.01-20.8Q143.01-21 141.96-21L141.96-21Q137.51-21 137.51-18.31L137.51-18.31Q137.51-17.38 138.44-16.89L138.44-16.89Q140.17-15.97 143.19-15.53 146.2-15.09 147.77-14.34 149.33-13.6 150.28-12.55L150.28-12.55Q152.04-10.64 152.04-7.5L152.04-7.5Q152.04-4.05 149.28-1.9L149.28-1.9Q146.4 0.37 141.25 0.37ZM184.99-19.63L185.07-19.58Q184.6-18.75 184.6-15.6L184.6-15.6 184.6-8.03Q184.6-4.59 181.04-2.05L181.04-2.05Q177.35 0.61 172.01 0.61L172.01 0.61Q164.58 0.61 160.17-4.05L160.17-4.05Q155.89-8.5 155.89-15.38L155.89-15.38Q155.89-22.71 160.24-27.59L160.24-27.59Q165.1-33.08 173.62-33.08L173.62-33.08Q179.31-33.08 182.63-30.88L182.63-30.88 182.24-23.68 182.04-23.63Q181.19-25.12 178.67-26.07L178.67-26.07Q176.28-26.98 173.65-26.98 171.03-26.98 169.06-26.15 167.1-25.32 165.73-23.78L165.73-23.78Q162.85-20.63 162.85-15.45L162.85-15.45Q162.85-10.94 165.39-8.2L165.39-8.2Q167.93-5.49 171.93-5.49L171.93-5.49Q176.35-5.49 177.89-7.79L177.89-7.79Q178.38-8.52 178.38-9.45L178.38-9.45 178.38-13.5 175.23-13.5Q172.69-13.5 172.47-13.06L172.47-13.06 172.4-13.09 172.18-19.46Q172.86-19.26 177.72-19.26L177.72-19.26 180.6-19.26Q183.29-19.26 184.99-19.63L184.99-19.63ZM196.76-17.77L196.76-2.73Q196.76-0.63 196.86 0L196.86 0 190.78 0 190.78-25.51 196.76-25.51 196.76-23.63Q198.84-26 201.12-26 203.4-26 204.72-25.44L204.72-25.44 204.28-18.87 204.18-18.8Q203.33-20.31 200.64-20.31L200.64-20.31Q199.62-20.31 198.55-19.62 197.49-18.92 196.76-17.77L196.76-17.77ZM224.54-1.51L224.54-1.51Q221.07 0.37 218.27 0.37 215.46 0.37 213.46-0.16 211.45-0.68 210.06-1.71L210.06-1.71Q207.23-3.78 207.23-7.71L207.23-7.71Q207.23-11.23 210.7-13.57L210.7-13.57Q214.46-16.11 220.9-16.11L220.9-16.11 221.88-16.09Q222.17-16.06 222.54-16.05 222.9-16.04 223.2-15.99L223.2-15.99Q223-19.9 219.83-20.56L219.83-20.56Q218.78-20.78 217.59-20.78 216.41-20.78 215.28-20.57 214.14-20.36 213.07-20.02L213.07-20.02Q210.7-19.26 209.67-18.29L209.67-18.29 209.6-18.33 208.87-23.73Q213.19-26 218.31-26L218.31-26Q226.27-26 228.5-20.26L228.5-20.26Q229.2-18.43 229.2-16.14L229.2-16.14 229.2-7.3Q229.2-4.47 231.21-3.44L231.21-3.44 226.79 0.61Q225.4-0.12 224.54-1.51ZM223.22-6.49L223.22-11.6Q222.56-11.72 221.86-11.72L221.86-11.72 220.88-11.72Q215.48-11.72 214.02-9.33L214.02-9.33Q213.58-8.62 213.58-7.84 213.58-7.06 213.86-6.46 214.14-5.86 214.8-5.47L214.8-5.47Q216.07-4.74 218.57-4.74 221.07-4.74 223.25-5.93L223.25-5.93Q223.22-6.2 223.22-6.49L223.22-6.49ZM243.41-17.16L243.41-7.06Q243.41-1.56 243.61 0L243.61 0 237.23 0 237.23-25.51 243.41-25.51 243.41-23.32Q246.75-26 250.27-26L250.27-26Q254.42-26 256.3-22.41L256.3-22.41Q258.18-24.34 259.43-24.95L259.43-24.95Q261.5-26 263.59-26 265.68-26 267.14-25.29 268.61-24.58 269.56-23.29L269.56-23.29Q271.49-20.68 271.49-16.11L271.49-16.11 271.49-6.4Q271.49-2.27 271.61-1.44 271.73-0.61 271.94-0.37 272.15-0.12 272.29 0.07L272.29 0.07 272.24 0.17Q270.29 0 269.36 0L269.36 0 267.53 0Q266.63 0 265.31 0.07L265.31 0.07 265.31-13.13Q265.31-18.85 263.55-19.92L263.55-19.92Q262.97-20.26 262.17-20.26 261.38-20.26 260.77-20.08 260.16-19.9 259.62-19.48L259.62-19.48Q258.72-18.82 257.57-16.89L257.57-16.89Q257.59-16.7 257.59-16.5 257.59-16.31 257.59-10.06 257.59-3.81 257.89 0L257.89 0Q255.81 0 254.36 0 252.91 0 251.59 0.07L251.59 0.07 251.59-13.16Q251.59-17.14 251.11-18.33 250.64-19.53 250.1-19.9 249.56-20.26 248.78-20.26L248.78-20.26Q245.56-20.26 243.41-17.16L243.41-17.16Z" opacity="1" transform="matrix(1,0,0,1,0,0)" fill="#5182f0" class="wordmark-text-0" data-fill-palette-color="primary" id="text-0"></path></svg></g></svg></g></svg></g></svg></g><g><svg viewBox="0 0 139.13268702589602 77.87677375919613" height="77.87677375919613" width="139.13268702589602"><g><svg xmlns="http://www.w3.org/2000/svg" data-name="Layer 1" viewBox="3.27 23.85 93.42 52.29" x="0" y="0" height="77.87677375919613" width="139.13268702589602" class="icon-icon-0" data-fill-palette-color="accent" id="icon-0"><path d="M20.72 49.85h0a13 13 0 1 0-13-13A12.95 12.95 0 0 0 20.73 49.85Zm29.11 7.77h0a13 13 0 1 0-13-13A12.9 12.9 0 0 0 49.84 57.62Zm29.42-7.77h0a13 13 0 1 0-13-13A12.95 12.95 0 0 0 79.26 49.85Zm-47.39 1c-3.33 2-12.62 6.41-21.72 0.06A29.29 29.29 0 0 0 3.27 68.37H30.21a31.12 31.12 0 0 1 5.64-11.05A20.88 20.88 0 0 0 31.86 50.87Zm58.52 0c-3.33 2-12.61 6.41-21.72 0.06a26.29 26.29 0 0 0-4.14 6.51 28.35 28.35 0 0 1 5.17 10.93h27C96.55 64.82 95.56 56.43 90.38 50.87ZM39.25 58.7a29.29 29.29 0 0 0-6.87 17.44H67.31c-0.18-3.55-1.17-11.94-6.34-17.5C57.63 60.64 48.34 65.05 39.25 58.7Z" fill="#004fd9" data-fill-palette-color="accent"></path></svg></g></svg></g></svg></g><defs></defs></svg><rect width="395.52" height="54.387451800847785" fill="none" stroke="none" visibility="hidden"></rect></g></svg></g></svg>